<?xml version="1.0" encoding="iso-8859-1"?>
<!-- Generator: Adobe Illustrator 18.0.0, SVG Export Plug-In . SVG Version: 6.00 Build 0)  -->
<!DOCTYPE svg PUBLIC "-//W3C//DTD SVG 1.1//EN" "http://www.w3.org/Graphics/SVG/1.1/DTD/svg11.dtd">
<svg version="1.1" id="Layer_1" xmlns="http://www.w3.org/2000/svg" xmlns:xlink="http://www.w3.org/1999/xlink" x="0px" y="0px"
	 viewBox="0 0 185.469 24.414" style="enable-background:new 0 0 185.469 24.414;" xml:space="preserve">
<path d="M13.92,2.502c0-1.992-1.872-2.568-3.432-2.496v0.312c0.936,0.023,1.656,0.336,1.656,0.959c0,0.433-0.312,0.984-1.248,0.984
	c-0.744,0-2.184-0.432-3.336-0.816c-1.272-0.432-2.472-0.84-3.48-0.84c-1.968,0-3.456,1.465-3.456,3.264
	c0,1.465,1.104,1.992,1.56,2.185l0.144-0.24C2.04,5.621,1.752,5.406,1.752,4.83c0-0.433,0.384-1.129,1.392-1.129
	c0.912,0,2.112,0.408,3.696,0.864c1.368,0.384,2.88,0.744,3.696,0.841v3.119L9,9.798v0.12l1.536,1.344v4.296
	c-0.792,0.456-1.704,0.576-2.496,0.576c-1.464,0-2.856-0.384-3.96-1.608l4.128-1.992V5.646L3.144,7.902
	C3.672,6.558,4.728,5.67,5.808,5.022l-0.072-0.24C2.736,5.598,0,8.357,0,11.766c0,4.08,3.312,7.103,7.08,7.103
	c4.08,0,6.672-3.191,6.624-6.575l-0.24-0.024c-0.6,1.296-1.464,2.52-2.592,3.168v-4.176l1.632-1.296L12.48,9.822l-1.608-1.297V5.406
	C12.36,5.406,13.92,4.398,13.92,2.502L13.92,2.502z M5.16,13.662l-1.224,0.6c-0.696-0.912-1.152-2.136-1.152-3.84
	c0-0.696,0.072-1.561,0.288-2.16l2.112-0.936L5.16,13.662L5.16,13.662z M15.84,15.894l-1.344,1.009l0.168,0.191l0.648-0.456
	l2.256,2.063l3.024-2.016l-0.144-0.216l-0.792,0.504l-0.984-0.983V9.078l0.816-0.601l1.728,1.392v6.121
	c0,3.815-0.84,4.439-2.568,5.064v0.265c2.856,0.119,5.424-0.841,5.424-5.736V9.006l0.912-0.721L24.816,8.07l-0.792,0.623
	l-2.472-2.136l-2.88,2.16V0.414h-0.216L14.88,2.814v0.216c0.36,0.217,0.96,0.36,0.96,1.561V15.894L15.84,15.894z M34.272,14.814
	L31.8,16.734l-2.568-2.017v-1.2l4.776-3.191v-0.145l-2.376-3.648l-5.208,2.785v6.623l-1.032,0.793l0.168,0.215l0.936-0.744
	l3.408,2.473l4.56-3.6L34.272,14.814L34.272,14.814z M29.232,13.158V8.214l0.168-0.12l2.208,3.48L29.232,13.158L29.232,13.158z
	 M53.567,1.59c0-0.312-0.072-0.576-0.192-0.935h-0.24c-0.312,0.84-0.696,1.295-1.68,1.295c-0.864,0-1.536-0.527-1.896-0.912
	c0,0.024-2.88,3.336-2.88,3.336l0.24,0.217l0.816-0.936c0.624,0.48,1.079,0.936,2.472,0.959v8.4L44.303,2.789
	c-0.456-0.768-1.224-1.92-2.64-1.92c-1.584,0-3.048,1.369-2.856,3.673h0.288c0.072-0.624,0.384-1.296,1.08-1.296
	c0.552,0,1.056,0.527,1.32,1.008v3.288c-1.824,0-3.024,0.84-3.024,2.327c0,0.769,0.384,2.064,1.656,2.305l0.024-0.217
	c-0.168-0.168-0.337-0.359-0.337-0.695c0-0.552,0.408-0.912,1.152-0.912c0.12,0,0.456,0.023,0.528,0.048v4.272
	c-2.136,0.024-3.792,1.199-3.792,3.216c0,1.92,1.656,2.832,3.384,2.735l0.024-0.239c-1.08-0.12-1.656-0.624-1.656-1.32
	c0-0.864,0.624-1.319,1.416-1.319c0.816,0,1.536,0.504,2.04,1.08l2.904-3.24l-0.24-0.217l-0.744,0.84
	c-1.104-0.983-1.728-1.344-3-1.535V4.565l8.136,14.185h0.576V4.613C52.103,4.518,53.567,3.342,53.567,1.59L53.567,1.59z
	 M60.839,14.814l-2.472,1.921l-2.568-2.017v-1.2l4.776-3.191v-0.145l-2.376-3.648l-5.208,2.785v6.623l-1.032,0.793l0.168,0.215
	l0.936-0.744l3.408,2.473l4.56-3.6L60.839,14.814L60.839,14.814z M55.799,13.158V8.214l0.168-0.12l2.208,3.48L55.799,13.158
	L55.799,13.158z M77.35,7.638L76.606,8.19l-1.92-1.632l-2.232,2.017l0.912,0.863v7.608l-2.448-1.56V9.294l0.792-0.552l-2.352-2.185
	l-2.184,2.017l0.912,0.863v7.225l-0.312,0.191l-2.136-1.512V9.27c0-1.392-0.672-1.8-1.56-2.352c-0.744-0.456-1.08-0.84-1.08-1.536
	c0-0.576,0.576-0.912,0.864-1.08c-0.024-0.024-0.024-0.24-0.024-0.24c-0.768-0.024-2.904,0.816-2.952,2.761
	c-0.024,1.008,0.456,1.439,0.96,1.92c0.504,0.479,0.96,0.936,0.96,1.775v5.832l-1.08,0.84l0.168,0.217l0.984-0.768l2.664,2.088
	l2.52-1.704l2.784,1.704l5.352-3.12V8.838l1.32-0.96L77.35,7.638L77.35,7.638z M96.046,2.094l-1.008,0.912l-2.256-1.969
	l-3.288,2.449V1.182h-0.336l0.072,16.344c-0.336-0.048-1.176-0.24-1.944-0.359L87.214,3.51c0-1.008-0.72-2.4-2.52-2.4
	c-1.848,0-3.048,1.416-3.048,2.832h0.288c0.096-0.6,0.408-1.128,1.008-1.128c0.624,0,1.152,0.384,1.152,1.728v3.936
	c-1.848,0.072-2.904,1.104-2.904,2.376c0,0.792,0.36,2.016,1.656,2.064l0.048-0.24c-0.432-0.191-0.528-0.456-0.528-0.696
	c0-0.575,0.552-0.815,1.32-0.815h0.36v6.24c-1.464,0.504-2.136,1.584-2.136,2.808c0,1.68,1.344,2.952,3.312,2.952
	c1.392,0,2.592-0.24,3.864-0.528c1.032-0.216,2.28-0.456,2.88-0.456c0.768,0,1.104,0.36,1.104,0.912c0,0.695-0.312,0.96-0.72,1.08
	l0.048,0.24c1.656-0.312,2.616-1.297,2.616-2.784c0-1.536-1.464-2.448-3.096-2.448c-0.84,0-2.496,0.264-3.744,0.553
	c-1.392,0.311-2.808,0.455-3.24,0.455c-0.696,0-1.56-0.336-1.56-1.272c0-0.84,0.696-1.512,2.424-1.512
	c0.936,0,1.992,0.144,3.144,0.407c1.224,0.265,2.304,0.601,3.36,0.601c1.464,0,2.784-0.528,2.784-2.664V3.318l1.176-1.009
	L96.046,2.094L96.046,2.094z M91.918,8.31c-0.264,0.288-0.696,0.576-1.2,0.576c-0.552,0-0.96-0.336-1.224-0.576V3.822l1.032-0.696
	l1.392,1.272V8.31L91.918,8.31z M91.918,11.31c-0.24-0.239-0.672-0.504-1.2-0.504c-0.528,0-1.008,0.311-1.224,0.504V8.67
	c0.216,0.191,0.696,0.527,1.224,0.527c0.528,0,0.96-0.287,1.2-0.527V11.31L91.918,11.31z M91.918,16.014
	c0,0.816-0.552,1.607-1.608,1.607c-0.168,0-0.648-0.023-0.816-0.047V11.67c0.24-0.217,0.672-0.553,1.224-0.553
	c0.504,0,0.912,0.289,1.2,0.553V16.014L91.918,16.014z M105.694,8.861l-3.264-2.328l-4.896,2.809v6.576l-1.008,0.816l0.144,0.215
	l0.792-0.647l3.24,2.376l4.992-3.048V8.861L105.694,8.861z M100.342,15.222v-7.2l2.544,1.824v7.2L100.342,15.222L100.342,15.222z
	 M115.318,6.798c0,0.024-0.192,0-0.192,0c-0.264,0.239-0.6,0.407-0.888,0.407c-0.384,0-0.888-0.239-1.128-0.551h-0.192l-1.704,1.871
	l-1.752-1.871l-2.976,2.063l0.144,0.239l0.792-0.527l1.032,1.104v6.36l-1.344,1.009l0.168,0.191l0.648-0.456l2.424,2.063
	l3.144-2.088l-0.144-0.216l-0.888,0.528l-1.176-1.057v-7.08c0.504,0.553,1.104,1.033,1.8,1.033
	C114.43,9.822,115.174,8.334,115.318,6.798L115.318,6.798z M127.438,16.47l-3.432,2.256l-4.656-7.032l3.288-5.111l0.216-0.024
	c0.384,0.384,1.056,0.792,1.68,0.792c0.696,0,1.176-0.384,1.464-0.792c0,0,0.192,0.024,0.192,0c-0.12,2.04-1.488,3.192-2.52,3.192
	c-1.056,0-1.56-0.48-2.112-0.816l-0.312,0.456l5.04,7.464l1.008-0.624L127.438,16.47L127.438,16.47z M116.35,15.894l-1.344,1.009
	l0.168,0.191l0.648-0.456l2.256,2.063l3.024-2.016l-0.168-0.216l-0.768,0.504l-0.984-0.983V0.414h-0.216l-3.648,2.424v0.216
	c0.36,0.216,1.032,0.312,1.032,1.536V15.894L116.35,15.894z M144.165,2.502c0-1.992-1.872-2.568-3.432-2.496v0.312
	c0.936,0.023,1.656,0.336,1.656,0.959c0,0.433-0.312,0.984-1.248,0.984c-0.744,0-2.184-0.432-3.336-0.816
	c-1.272-0.432-2.472-0.84-3.48-0.84c-1.968,0-3.456,1.465-3.456,3.264c0,1.465,1.104,1.992,1.56,2.185l0.144-0.24
	c-0.288-0.192-0.576-0.407-0.576-0.983c0-0.433,0.384-1.129,1.392-1.129c0.912,0,2.112,0.408,3.696,0.864
	c1.368,0.384,2.88,0.744,3.696,0.841v3.119l-1.536,1.273v0.12l1.536,1.344v4.296c-0.792,0.456-1.704,0.576-2.496,0.576
	c-1.464,0-2.856-0.384-3.96-1.608l4.128-1.992V5.646l-5.064,2.257c0.528-1.345,1.584-2.232,2.664-2.881l-0.072-0.24
	c-3,0.816-5.736,3.576-5.736,6.984c0,4.08,3.312,7.103,7.08,7.103c4.08,0,6.672-3.191,6.624-6.575l-0.24-0.024
	c-0.6,1.296-1.464,2.52-2.592,3.168v-4.176l1.632-1.296l-0.024-0.144l-1.608-1.297V5.406C142.605,5.406,144.165,4.398,144.165,2.502
	L144.165,2.502z M135.405,13.662l-1.224,0.6c-0.696-0.912-1.152-2.136-1.152-3.84c0-0.696,0.072-1.561,0.288-2.16l2.112-0.936
	L135.405,13.662L135.405,13.662z M147.621,1.565l-0.144-0.023l-2.016,1.704V3.39l1.704,1.92h0.168l2.016-1.68l-0.024-0.12
	L147.621,1.565L147.621,1.565z M150.693,16.47l-0.768,0.504l-0.984-0.983V9.029l0.96-0.72l-0.192-0.239l-0.744,0.575l-1.752-2.088
	l-2.88,2.017l0.168,0.264l0.72-0.481l0.888,1.104v6.528l-1.296,0.983l0.144,0.192l0.672-0.48l2.208,2.016l3.024-2.016L150.693,16.47
	L150.693,16.47z M167.493,16.35l-0.72,0.48l-1.08-0.984v-6.84l1.032-0.768l-0.168-0.217l-0.888,0.672l-2.304-2.136l-2.976,2.112
	l-2.28-2.112l-2.928,2.088l-1.8-2.088l-2.88,2.017l0.144,0.264l0.72-0.481l0.984,1.08v6.528l-0.792,0.792l2.304,1.943l2.232-2.016
	l-0.912-0.863V9.006l0.864-0.576l1.56,1.439v6.097l-0.768,0.792l2.328,1.943l2.184-2.016l-0.912-0.863V8.957l0.768-0.504
	l1.656,1.416v6l-0.672,0.696l2.352,2.136l3.096-2.111L167.493,16.35L167.493,16.35z M176.253,14.814l-2.472,1.921l-2.568-2.017v-1.2
	l4.776-3.191v-0.145l-2.376-3.648l-5.208,2.785v6.84l3.48,2.519l4.56-3.6L176.253,14.814L176.253,14.814z M171.213,13.158V8.214
	l0.168-0.12l2.208,3.48L171.213,13.158L171.213,13.158z M185.469,12.218l-1.944-1.464c1.296-1.128,1.8-2.641,1.8-3.672
	c0-0.144-0.024-0.408-0.048-0.648h-0.24c-0.192,0.528-0.576,0.984-1.368,0.984c-0.768,0-1.32-0.432-1.8-0.961l-4.536,2.473v3.672
	l1.68,1.32c-1.704,1.512-2.016,2.568-2.016,3.336c0,1.008,0.456,1.729,1.32,2.064l0.12-0.217c-0.216-0.191-0.408-0.312-0.408-0.768
	c0-0.336,0.408-0.816,1.176-0.816c0.984,0,1.584,0.672,1.896,1.032c0-0.024,4.368-2.616,4.368-2.616V12.218L185.469,12.218z
	 M184.389,9.193c-0.672,1.2-2.232,2.377-3.096,3.049l-1.104-0.864V7.802c0.432,0.96,1.488,1.776,2.64,1.776
	C183.501,9.578,183.861,9.457,184.389,9.193L184.389,9.193z M182.613,17.21c-0.504-1.128-1.68-1.944-2.88-1.944
	c-0.288,0-1.128,0-1.896,0.481c0.456-0.769,1.8-2.209,3.528-3.24l1.248,0.96V17.21L182.613,17.21z"/>
</svg>
