<?xml version="1.0" encoding="utf-8"?>
<!-- Generator: Adobe Illustrator 17.1.0, SVG Export Plug-In . SVG Version: 6.00 Build 0)  -->
<!DOCTYPE svg PUBLIC "-//W3C//DTD SVG 1.1//EN" "http://www.w3.org/Graphics/SVG/1.1/DTD/svg11.dtd">
<svg version="1.1" id="Layer_1" xmlns="http://www.w3.org/2000/svg" xmlns:xlink="http://www.w3.org/1999/xlink" x="0px" y="0px"
     viewBox="0 0 240 72" style="enable-background:new 0 0 240 72;" xml:space="preserve">
<polygon points="0,0 0,68 12,68 12,12 0,0 "/>
<polygon points="101.2,9.3 109.8,17.8 118.3,9.2 109.8,0.7 "/>
<path d="M109.8,21.3l-9.4,6.7c1,1.3,2.6,3.5,3.3,4.3c0.9,1,1.2,1.9,1.2,3V68h12V34.4c0-4.3-1.7-6.9-3.5-9
    C111.8,23.6,109.8,21.3,109.8,21.3"/>
<polygon points="180.8,26.9 191,43.9 184,48.9 184.4,49.6 197,40.5 201,37.6 191.3,21.1 "/>
<path d="M189.5,62.3l-8.1-6.3c-0.5-0.4-0.9-1-0.9-1.7V27l-12,6.6v20.6c0,4.6,2.2,8.9,5.9,11.5l5.8,4.2l20.6-15l-0.4-0.6L189.5,62.3z
    "/>
<path d="M18.8,28c1,1.3,2.6,3.5,3.3,4.3c0.9,1,1.2,1.9,1.2,3V68h12V34.4c0-0.9-0.1-1.8-0.2-2.6l3.6-2.7l7.1,7.5V68h12V31.3l-9.7-10
    L34.9,31c-0.6-2.4-1.8-4.1-3.1-5.6c-1.5-1.8-3.5-4.1-3.5-4.1L18.8,28z"/>
<polygon points="38.8,28.1 38.8,28.1 38.8,28.1 "/>
<path d="M213.2,21.3l-0.3,0.2l0,0l-9.1,6.5c1,1.3,2.6,3.5,3.3,4.3c0.9,1,1.2,1.9,1.2,3V68h12V34.4c0-4.3-1.7-6.9-3.5-9
    C215.2,23.6,213.2,21.3,213.2,21.3"/>
<path d="M239.7,20.6c0,0,1,6.2-4.7,6.1c-3.7-0.1-5.8-3.4-7.1-5.4l-8.3,6.6c1.9,3.8,6.2,6.2,9.9,6.2c3.6,0,6.6-1.7,8.4-4
    C240.9,26.2,239.8,21.1,239.7,20.6"/>
<polygon points="137.3,27.4 125.3,34.2 125.3,59.7 137.5,69.7 148.3,63.6 137.3,54.3 "/>
<path d="M129.2,0.1V16c0,0,18.4,17.4,19,17.9c0.4,0.4,0.7,1,0.7,1.6v27.8l11.6-6.6V35.1c0-4.2-1.4-6.8-3.4-8.7
    C156,25.3,129.2,0.1,129.2,0.1"/>
<path d="M73.5,55.8c-3.3,0-5.6,1.4-7,2.8c-4.3,4.3-2.9,9.8,1.2,13.4c-2.6-2.5-1.6-5.4,0.5-6.5c3.4-1.8,7.5,4,7.5,4L85,64
    C85,64,80.7,55.8,73.5,55.8"/>
<path d="M86,33.3c3.9,0.1,6.1-1.4,7.8-3.7c2.8-3.9,2-9.1,1.9-9.7c0,0,0.9,5.9-4.4,5.7c-3.4-0.1-5.5-3.1-6.6-5L76.2,26
    C77.9,29.8,82.2,33.2,86,33.3"/>
<path d="M93.1,49L76.6,33c-0.5-0.5-0.8-1.1-0.7-1.7c0-0.6,0-3.7,0-5.2l-12,7.1c0,0.1,0,0.1,0,0.1c0,2.8,1,5.1,4.1,8l16.5,15.9
    c0.5,0.5,0.8,1.1,0.7,1.7c0,0.6,0,3.4,0,4.8l12-7.1c0-0.2,0-0.4,0-0.5C97.2,53.5,96.2,52,93.1,49"/>
<path d="M63.9,33.4c0,0,0-0.1,0-0.1C63.9,33.2,63.9,33.5,63.9,33.4"/>
</svg>